<?xml version="1.0" encoding="UTF-8"?>
<svg width="19px" height="21px" viewBox="0 0 19 21" version="1.1" xmlns="http://www.w3.org/2000/svg" xmlns:xlink="http://www.w3.org/1999/xlink">
    <!-- Generator: sketchtool 41 (35326) - http://www.bohemiancoding.com/sketch -->
    <title>1E5ADF8F-DCFE-43AE-897F-4FF03F140A55</title>
    <desc>Created with sketchtool.</desc>
    <defs></defs>
    <g id="Page-1" stroke="none" stroke-width="1" fill="none" fill-rule="evenodd">
        <g id="Desktop-HD" transform="translate(-1164.000000, -1426.000000)" fill="#E87E04">
            <g id="Group-6-Copy-4" transform="translate(166.000000, 1422.000000)">
                <g id="noun_626099_cc" transform="translate(998.000000, 4.000000)">
                    <g id="Png-48px-Solid---70-Basic-Icons">
                        <path d="M17.8947368,2.73913043 L13.4210526,2.73913043 L13.4210526,1.00434783 C13.4210526,0.319565217 12.8394737,0 12.0789474,0 L6.71052632,0 C5.95,0 5.36842105,0.319565217 5.36842105,1.00434783 L5.36842105,2.73913043 L0.894736842,2.73913043 C0.402631579,2.73913043 0,3.15 0,3.65217391 C0,4.15434783 0.402631579,4.56521739 0.894736842,4.56521739 L1.34210526,4.56521739 L1.34210526,16.6630435 C1.34210526,19.0369565 3.08684211,21 5.18947368,21 L14.0026316,21 C15.8815789,21 17.4026316,19.2652174 17.4026316,17.1195652 L17.4026316,4.56521739 L17.85,4.56521739 C18.3421053,4.56521739 18.7447368,4.15434783 18.7447368,3.65217391 C18.7447368,3.15 18.3868421,2.73913043 17.8947368,2.73913043 Z M7.15789474,1.36956522 L11.6315789,1.36956522 L11.6315789,2.73913043 L7.15789474,2.73913043 L7.15789474,1.36956522 Z M6.71052632,15.9782609 C6.71052632,16.4804348 6.30789474,16.8913043 5.81578947,16.8913043 C5.32368421,16.8913043 4.92105263,16.4804348 4.92105263,15.9782609 L4.92105263,7.76086957 C4.92105263,7.25869565 5.32368421,6.84782609 5.81578947,6.84782609 C6.30789474,6.84782609 6.71052632,7.25869565 6.71052632,7.76086957 L6.71052632,15.9782609 Z M10.2894737,15.9782609 C10.2894737,16.4804348 9.88684211,16.8913043 9.39473684,16.8913043 C8.90263158,16.8913043 8.5,16.4804348 8.5,15.9782609 L8.5,7.76086957 C8.5,7.25869565 8.90263158,6.84782609 9.39473684,6.84782609 C9.88684211,6.84782609 10.2894737,7.25869565 10.2894737,7.76086957 L10.2894737,15.9782609 Z M13.8684211,15.9782609 C13.8684211,16.4804348 13.4657895,16.8913043 12.9736842,16.8913043 C12.4815789,16.8913043 12.0789474,16.4804348 12.0789474,15.9782609 L12.0789474,7.76086957 C12.0789474,7.25869565 12.4815789,6.84782609 12.9736842,6.84782609 C13.4657895,6.84782609 13.8684211,7.25869565 13.8684211,7.76086957 L13.8684211,15.9782609 Z" id="Shape"></path>
                    </g>
                </g>
            </g>
        </g>
    </g>
</svg>