<?xml version="1.0" encoding="UTF-8"?>
<svg width="30px" height="23px" viewBox="0 0 30 23" version="1.1" xmlns="http://www.w3.org/2000/svg" xmlns:xlink="http://www.w3.org/1999/xlink">
    <!-- Generator: sketchtool 41 (35326) - http://www.bohemiancoding.com/sketch -->
    <title>DA3A2F83-43D0-4546-94AE-FCF2BAD7DE0C</title>
    <desc>Created with sketchtool.</desc>
    <defs></defs>
    <g id="Page-1" stroke="none" stroke-width="1" fill="none" fill-rule="evenodd">
        <g id="Desktop-HD" transform="translate(-1006.000000, -1424.000000)" fill="#E87E04">
            <g id="Group-6-Copy-4" transform="translate(166.000000, 1422.000000)">
                <g id="Group-5" transform="translate(840.000000, 2.000000)">
                    <g id="noun_49531_cc">
                        <g id="Group">
                            <path d="M28.8397826,4.18369565 L25.4452174,0.785869565 C24.6208696,-0.0417391304 23.2832609,-0.0560869565 22.4752174,0.75 C22.4752174,0.750652174 22.4719565,0.751956522 22.4719565,0.751956522 L22.4719565,0.751956522 L10.0930435,13.143913 L9.8426087,13.3904348 L7.6976087,21.9547826 L16.2469565,19.8091304 L17.0445652,18.9945652 L17.0445652,18.9945652 L28.8736957,7.155 L28.8736957,7.155 C28.8736957,7.155 28.8736957,7.155 28.8736957,7.1523913 C29.6817391,6.34695652 29.6647826,5.01 28.8397826,4.18369565 Z M10.7204348,14.2545652 L15.3926087,18.9293478 L11.0073913,20.0308696 L9.63521739,18.5869565 L10.7204348,14.2545652 Z M16.2515217,16.0376087 L13.6023913,13.3852174 L22.4719565,4.50586957 L25.1223913,7.1576087 L16.2515217,16.0376087 Z" id="Shape"></path>
                            <polygon id="Shape" points="1.59326087 19.7869565 0.530217391 19.7869565 0.530217391 22.0186957 5.21543478 22.0186957 5.30478261 21.3104348 5.48282609 19.893913 1.59326087 19.893913"></polygon>
                        </g>
                    </g>
                </g>
            </g>
        </g>
    </g>
</svg>